<?xml version="1.0" standalone="no"?>
<!DOCTYPE svg PUBLIC "-//W3C//DTD SVG 20010904//EN"
 "http://www.w3.org/TR/2001/REC-SVG-20010904/DTD/svg10.dtd">
<svg version="1.0" xmlns="http://www.w3.org/2000/svg"
 width="70.000000pt" height="70.000000pt" viewBox="0 0 70.000000 70.000000"
 preserveAspectRatio="xMidYMid meet">
<metadata>
Created by potrace 1.11, written by Peter Selinger 2001-2013
</metadata>
<g transform="translate(0.000000,70.000000) scale(0.100000,-0.100000)"
fill="#000000" stroke="none">
<path d="M215 550 c-133 -133 -148 -151 -135 -165 14 -13 34 4 180 150 153
153 163 165 135 165 -26 0 -53 -23 -180 -150z"/>
<path d="M382 617 c-9 -10 27 -51 153 -177 155 -155 165 -163 165 -134 0 26
-21 52 -147 177 -80 81 -150 147 -153 147 -4 0 -12 -6 -18 -13z"/>
<path d="M230 465 l-114 -114 117 -118 117 -118 117 117 118 118 -115 115
c-63 63 -117 115 -120 115 -3 0 -57 -52 -120 -115z m207 -202 l-87 -85 -86 86
-87 86 88 86 87 86 86 -86 85 -87 -86 -86z"/>
<path d="M0 394 c0 -24 25 -54 146 -177 136 -137 174 -165 174 -124 0 7 -72
84 -160 172 -147 146 -160 156 -160 129z"/>
<path d="M435 160 c-152 -152 -158 -160 -128 -160 27 0 51 20 177 147 136 135
163 173 124 173 -7 0 -85 -72 -173 -160z"/>
</g>
</svg>
